<svg xmlns="http://www.w3.org/2000/svg" xmlns:xlink="http://www.w3.org/1999/xlink" contentStyleType="text/css" data-diagram-type="CLASS" height="974px" preserveAspectRatio="none" style="width:609px;height:974px;background:#FFFFFF;" version="1.1" viewBox="0 0 609 974" width="609px" zoomAndPan="magnify"><defs/><g><!--class User--><g class="entity" data-entity="User" data-source-line="3" data-uid="ent0002" id="entity_User"><rect fill="#FFFFFF" height="141.7813" rx="2.5" ry="2.5" style="stroke:#000000;stroke-width:1;" width="184.1113" x="249.49" y="12"/><ellipse cx="321.8406" cy="26" fill="#FFFFFF" rx="9" ry="9" style="stroke:#000000;stroke-width:1;"/><path d="M324.8093,31.6406 Q324.2312,31.9375 323.5906,32.0781 Q322.95,32.2344 322.2468,32.2344 Q319.7468,32.2344 318.4187,30.5938 Q317.1062,28.9375 317.1062,25.8125 Q317.1062,22.6875 318.4187,21.0313 Q319.7468,19.375 322.2468,19.375 Q322.95,19.375 323.5906,19.5313 Q324.2468,19.6875 324.8093,19.9844 L324.8093,22.7031 Q324.1843,22.125 323.5906,21.8594 Q322.9968,21.5781 322.3718,21.5781 Q321.0281,21.5781 320.3406,22.6563 Q319.6531,23.7188 319.6531,25.8125 Q319.6531,27.9063 320.3406,28.9844 Q321.0281,30.0469 322.3718,30.0469 Q322.9968,30.0469 323.5906,29.7813 Q324.1843,29.5 324.8093,28.9219 L324.8093,31.6406 Z " fill="#000000"/><text fill="#000000" font-family="Verdana" font-size="14" lengthAdjust="spacing" textLength="31.9102" x="339.3406" y="30.8467">User</text><line style="stroke:#000000;stroke-width:1;" x1="250.49" x2="432.6013" y1="40" y2="40"/><ellipse cx="260.49" cy="53.6484" fill="none" rx="3" ry="3" style="stroke:#000000;stroke-width:1;"/><text fill="#000000" font-family="Verdana" font-size="14" lengthAdjust="spacing" textLength="63.7246" x="267.49" y="56.9951">id: String</text><text fill="#000000" font-family="Verdana" font-size="14" lengthAdjust="spacing" textLength="98.082" x="267.49" y="73.292">name: String?</text><text fill="#000000" font-family="Verdana" font-size="14" lengthAdjust="spacing" textLength="96.9883" x="267.49" y="89.5889">email: String?</text><text fill="#000000" font-family="Verdana" font-size="14" lengthAdjust="spacing" textLength="160.1113" x="267.49" y="105.8857">role: "USER" | "ADMIN"</text><text fill="#000000" font-family="Verdana" font-size="14" lengthAdjust="spacing" textLength="146.0225" x="267.49" y="122.1826">createdAt: DateTime</text><text fill="#000000" font-family="Verdana" font-size="14" lengthAdjust="spacing" textLength="150.6025" x="267.49" y="138.4795">updatedAt: DateTime</text><line style="stroke:#000000;stroke-width:1;" x1="250.49" x2="432.6013" y1="145.7813" y2="145.7813"/></g><!--class Product--><g class="entity" data-entity="Product" data-source-line="12" data-uid="ent0003" id="entity_Product"><rect fill="#FFFFFF" height="158.0781" rx="2.5" ry="2.5" style="stroke:#000000;stroke-width:1;" width="174.6025" x="96.24" y="809.42"/><ellipse cx="152.9363" cy="823.42" fill="#FFFFFF" rx="9" ry="9" style="stroke:#000000;stroke-width:1;"/><path d="M155.905,829.0606 Q155.3269,829.3575 154.6863,829.4981 Q154.0457,829.6544 153.3425,829.6544 Q150.8425,829.6544 149.5144,828.0138 Q148.2019,826.3575 148.2019,823.2325 Q148.2019,820.1075 149.5144,818.4513 Q150.8425,816.795 153.3425,816.795 Q154.0457,816.795 154.6863,816.9513 Q155.3425,817.1075 155.905,817.4044 L155.905,820.1231 Q155.28,819.545 154.6863,819.2794 Q154.0925,818.9981 153.4675,818.9981 Q152.1238,818.9981 151.4363,820.0763 Q150.7488,821.1388 150.7488,823.2325 Q150.7488,825.3263 151.4363,826.4044 Q152.1238,827.4669 153.4675,827.4669 Q154.0925,827.4669 154.6863,827.2013 Q155.28,826.92 155.905,826.3419 L155.905,829.0606 Z " fill="#000000"/><text fill="#000000" font-family="Verdana" font-size="14" lengthAdjust="spacing" textLength="53.71" x="170.4363" y="828.2667">Product</text><line style="stroke:#000000;stroke-width:1;" x1="97.24" x2="269.8425" y1="837.42" y2="837.42"/><ellipse cx="107.24" cy="851.0684" fill="none" rx="3" ry="3" style="stroke:#000000;stroke-width:1;"/><text fill="#000000" font-family="Verdana" font-size="14" lengthAdjust="spacing" textLength="63.7246" x="114.24" y="854.4151">id: String</text><text fill="#000000" font-family="Verdana" font-size="14" lengthAdjust="spacing" textLength="90.6514" x="114.24" y="870.712">name: String</text><text fill="#000000" font-family="Verdana" font-size="14" lengthAdjust="spacing" textLength="136.2197" x="114.24" y="887.0089">description: String?</text><text fill="#000000" font-family="Verdana" font-size="14" lengthAdjust="spacing" textLength="62.501" x="114.24" y="903.3057">price: Int</text><text fill="#000000" font-family="Verdana" font-size="14" lengthAdjust="spacing" textLength="121.8779" x="114.24" y="919.6026">imageUrl: String?</text><text fill="#000000" font-family="Verdana" font-size="14" lengthAdjust="spacing" textLength="146.0225" x="114.24" y="935.8995">createdAt: DateTime</text><text fill="#000000" font-family="Verdana" font-size="14" lengthAdjust="spacing" textLength="150.6025" x="114.24" y="952.1964">updatedAt: DateTime</text><line style="stroke:#000000;stroke-width:1;" x1="97.24" x2="269.8425" y1="959.4981" y2="959.4981"/></g><!--class Order--><g class="entity" data-entity="Order" data-source-line="22" data-uid="ent0004" id="entity_Order"><rect fill="#FFFFFF" height="125.4844" rx="2.5" ry="2.5" style="stroke:#000000;stroke-width:1;" width="174.6025" x="137.24" y="230.78"/><ellipse cx="200.7756" cy="244.78" fill="#FFFFFF" rx="9" ry="9" style="stroke:#000000;stroke-width:1;"/><path d="M203.7444,250.4206 Q203.1663,250.7175 202.5256,250.8581 Q201.885,251.0144 201.1819,251.0144 Q198.6819,251.0144 197.3538,249.3737 Q196.0413,247.7175 196.0413,244.5925 Q196.0413,241.4675 197.3538,239.8112 Q198.6819,238.155 201.1819,238.155 Q201.885,238.155 202.5256,238.3112 Q203.1819,238.4675 203.7444,238.7644 L203.7444,241.4831 Q203.1194,240.905 202.5256,240.6394 Q201.9319,240.3581 201.3069,240.3581 Q199.9631,240.3581 199.2756,241.4362 Q198.5881,242.4987 198.5881,244.5925 Q198.5881,246.6862 199.2756,247.7644 Q199.9631,248.8269 201.3069,248.8269 Q201.9319,248.8269 202.5256,248.5612 Q203.1194,248.28 203.7444,247.7019 L203.7444,250.4206 Z " fill="#000000"/><text fill="#000000" font-family="Verdana" font-size="14" lengthAdjust="spacing" textLength="40.0313" x="218.2756" y="249.6267">Order</text><line style="stroke:#000000;stroke-width:1;" x1="138.24" x2="310.8425" y1="258.78" y2="258.78"/><ellipse cx="148.24" cy="272.4284" fill="none" rx="3" ry="3" style="stroke:#000000;stroke-width:1;"/><text fill="#000000" font-family="Verdana" font-size="14" lengthAdjust="spacing" textLength="63.7246" x="155.24" y="275.7751">id: String</text><text fill="#000000" font-family="Verdana" font-size="14" lengthAdjust="spacing" textLength="93.9668" x="155.24" y="292.072">status: String</text><text fill="#000000" font-family="Verdana" font-size="14" lengthAdjust="spacing" textLength="114.6865" x="155.24" y="308.3689">totalAmount: Int</text><text fill="#000000" font-family="Verdana" font-size="14" lengthAdjust="spacing" textLength="146.0225" x="155.24" y="324.6657">createdAt: DateTime</text><text fill="#000000" font-family="Verdana" font-size="14" lengthAdjust="spacing" textLength="150.6025" x="155.24" y="340.9626">updatedAt: DateTime</text><line style="stroke:#000000;stroke-width:1;" x1="138.24" x2="310.8425" y1="348.2644" y2="348.2644"/></g><!--class OrderItem--><g class="entity" data-entity="OrderItem" data-source-line="30" data-uid="ent0005" id="entity_OrderItem"><rect fill="#FFFFFF" height="92.8906" rx="2.5" ry="2.5" style="stroke:#000000;stroke-width:1;" width="110.0234" x="128.53" y="582.49"/><ellipse cx="146.0854" cy="596.49" fill="#FFFFFF" rx="9" ry="9" style="stroke:#000000;stroke-width:1;"/><path d="M149.0541,602.1306 Q148.476,602.4275 147.8354,602.5681 Q147.1947,602.7244 146.4916,602.7244 Q143.9916,602.7244 142.6635,601.0838 Q141.351,599.4275 141.351,596.3025 Q141.351,593.1775 142.6635,591.5213 Q143.9916,589.865 146.4916,589.865 Q147.1947,589.865 147.8354,590.0213 Q148.4916,590.1775 149.0541,590.4744 L149.0541,593.1931 Q148.4291,592.615 147.8354,592.3494 Q147.2416,592.0681 146.6166,592.0681 Q145.2729,592.0681 144.5854,593.1463 Q143.8979,594.2088 143.8979,596.3025 Q143.8979,598.3963 144.5854,599.4744 Q145.2729,600.5369 146.6166,600.5369 Q147.2416,600.5369 147.8354,600.2713 Q148.4291,599.99 149.0541,599.4119 L149.0541,602.1306 Z " fill="#000000"/><text fill="#000000" font-family="Verdana" font-size="14" lengthAdjust="spacing" textLength="71.9004" x="159.0977" y="601.3367">OrderItem</text><line style="stroke:#000000;stroke-width:1;" x1="129.53" x2="237.5534" y1="610.49" y2="610.49"/><ellipse cx="139.53" cy="624.1384" fill="none" rx="3" ry="3" style="stroke:#000000;stroke-width:1;"/><text fill="#000000" font-family="Verdana" font-size="14" lengthAdjust="spacing" textLength="63.7246" x="146.53" y="627.4851">id: String</text><text fill="#000000" font-family="Verdana" font-size="14" lengthAdjust="spacing" textLength="86.0234" x="146.53" y="643.782">quantity: Int</text><text fill="#000000" font-family="Verdana" font-size="14" lengthAdjust="spacing" textLength="62.501" x="146.53" y="660.0789">price: Int</text><line style="stroke:#000000;stroke-width:1;" x1="129.53" x2="237.5534" y1="667.3806" y2="667.3806"/></g><!--class CartItem--><g class="entity" data-entity="CartItem" data-source-line="36" data-uid="ent0006" id="entity_CartItem"><rect fill="#FFFFFF" height="109.1875" rx="2.5" ry="2.5" style="stroke:#000000;stroke-width:1;" width="174.6025" x="427.24" y="386.27"/><ellipse cx="480.0569" cy="400.27" fill="#FFFFFF" rx="9" ry="9" style="stroke:#000000;stroke-width:1;"/><path d="M483.0256,405.9106 Q482.4475,406.2075 481.8069,406.3481 Q481.1663,406.5044 480.4631,406.5044 Q477.9631,406.5044 476.635,404.8638 Q475.3225,403.2075 475.3225,400.0825 Q475.3225,396.9575 476.635,395.3013 Q477.9631,393.645 480.4631,393.645 Q481.1663,393.645 481.8069,393.8013 Q482.4631,393.9575 483.0256,394.2544 L483.0256,396.9731 Q482.4006,396.395 481.8069,396.1294 Q481.2131,395.8481 480.5881,395.8481 Q479.2444,395.8481 478.5569,396.9263 Q477.8694,397.9888 477.8694,400.0825 Q477.8694,402.1763 478.5569,403.2544 Q479.2444,404.3169 480.5881,404.3169 Q481.2131,404.3169 481.8069,404.0513 Q482.4006,403.77 483.0256,403.1919 L483.0256,405.9106 Z " fill="#000000"/><text fill="#000000" font-family="Verdana" font-size="14" lengthAdjust="spacing" textLength="61.4688" x="497.5569" y="405.1167">CartItem</text><line style="stroke:#000000;stroke-width:1;" x1="428.24" x2="600.8425" y1="414.27" y2="414.27"/><ellipse cx="438.24" cy="427.9184" fill="none" rx="3" ry="3" style="stroke:#000000;stroke-width:1;"/><text fill="#000000" font-family="Verdana" font-size="14" lengthAdjust="spacing" textLength="63.7246" x="445.24" y="431.2651">id: String</text><text fill="#000000" font-family="Verdana" font-size="14" lengthAdjust="spacing" textLength="86.0234" x="445.24" y="447.562">quantity: Int</text><text fill="#000000" font-family="Verdana" font-size="14" lengthAdjust="spacing" textLength="146.0225" x="445.24" y="463.8589">createdAt: DateTime</text><text fill="#000000" font-family="Verdana" font-size="14" lengthAdjust="spacing" textLength="150.6025" x="445.24" y="480.1557">updatedAt: DateTime</text><line style="stroke:#000000;stroke-width:1;" x1="428.24" x2="600.8425" y1="487.4575" y2="487.4575"/></g><!--class Address--><g class="entity" data-entity="Address" data-source-line="43" data-uid="ent0007" id="entity_Address"><rect fill="#FFFFFF" height="206.9688" rx="2.5" ry="2.5" style="stroke:#000000;stroke-width:1;" width="174.6025" x="273.24" y="525.45"/><ellipse cx="328.6375" cy="539.45" fill="#FFFFFF" rx="9" ry="9" style="stroke:#000000;stroke-width:1;"/><path d="M331.6062,545.0906 Q331.0281,545.3875 330.3875,545.5281 Q329.7468,545.6844 329.0437,545.6844 Q326.5437,545.6844 325.2156,544.0438 Q323.9031,542.3875 323.9031,539.2625 Q323.9031,536.1375 325.2156,534.4813 Q326.5437,532.825 329.0437,532.825 Q329.7468,532.825 330.3875,532.9813 Q331.0437,533.1375 331.6062,533.4344 L331.6062,536.1531 Q330.9812,535.575 330.3875,535.3094 Q329.7937,535.0281 329.1687,535.0281 Q327.825,535.0281 327.1375,536.1063 Q326.45,537.1688 326.45,539.2625 Q326.45,541.3563 327.1375,542.4344 Q327.825,543.4969 329.1687,543.4969 Q329.7937,543.4969 330.3875,543.2313 Q330.9812,542.95 331.6062,542.3719 L331.6062,545.0906 Z " fill="#000000"/><text fill="#000000" font-family="Verdana" font-size="14" lengthAdjust="spacing" textLength="56.3076" x="346.1375" y="544.2967">Address</text><line style="stroke:#000000;stroke-width:1;" x1="274.24" x2="446.8425" y1="553.45" y2="553.45"/><ellipse cx="284.24" cy="567.0984" fill="none" rx="3" ry="3" style="stroke:#000000;stroke-width:1;"/><text fill="#000000" font-family="Verdana" font-size="14" lengthAdjust="spacing" textLength="63.7246" x="291.24" y="570.4451">id: String</text><text fill="#000000" font-family="Verdana" font-size="14" lengthAdjust="spacing" textLength="84.8066" x="291.24" y="586.742">label: String</text><text fill="#000000" font-family="Verdana" font-size="14" lengthAdjust="spacing" textLength="149.4746" x="291.24" y="603.0389">receiverName: String</text><text fill="#000000" font-family="Verdana" font-size="14" lengthAdjust="spacing" textLength="94.7598" x="291.24" y="619.3357">phone: String</text><text fill="#000000" font-family="Verdana" font-size="14" lengthAdjust="spacing" textLength="129.4932" x="291.24" y="635.6326">postalCode: String</text><text fill="#000000" font-family="Verdana" font-size="14" lengthAdjust="spacing" textLength="115.165" x="291.24" y="651.9295">address1: String</text><text fill="#000000" font-family="Verdana" font-size="14" lengthAdjust="spacing" textLength="115.165" x="291.24" y="668.2264">address2: String</text><text fill="#000000" font-family="Verdana" font-size="14" lengthAdjust="spacing" textLength="128.1943" x="291.24" y="684.5232">isDefault: Boolean</text><text fill="#000000" font-family="Verdana" font-size="14" lengthAdjust="spacing" textLength="146.0225" x="291.24" y="700.8201">createdAt: DateTime</text><text fill="#000000" font-family="Verdana" font-size="14" lengthAdjust="spacing" textLength="150.6025" x="291.24" y="717.117">updatedAt: DateTime</text><line style="stroke:#000000;stroke-width:1;" x1="274.24" x2="446.8425" y1="724.4188" y2="724.4188"/></g><!--link User to Product--><g class="link" data-entity-1="User" data-entity-2="Product" data-source-line="56" data-uid="lnk8" id="link_User_Product"><path codeLine="56" d="M249.02,120.13 C201.47,143.97 147.72,180.22 119.54,230.78 C11,425.57 61.88,514.81 110.54,732.42 C116.36,758.41 127.03,785.17 138.45,809" fill="none" id="User-Product" style="stroke:#000000;stroke-width:1;"/><polygon fill="#000000" points="64.7476,445.8632,69.0829,437.3982,63.2793,436.4667,64.7476,445.8632" style="stroke:#000000;stroke-width:1;"/><text fill="#000000" font-family="Verdana" font-size="13" lengthAdjust="spacing" textLength="33.5981" x="74.54" y="445.4269">owns</text><text fill="#000000" font-family="Verdana" font-size="13" lengthAdjust="spacing" textLength="8.271" x="233.3389" y="119.572">1</text><text fill="#000000" font-family="Verdana" font-size="13" lengthAdjust="spacing" textLength="6.5" x="128.1891" y="798.328">*</text></g><!--link User to Order--><g class="link" data-entity-1="User" data-entity-2="Order" data-source-line="57" data-uid="lnk9" id="link_User_Order"><path codeLine="57" d="M302.1,154.23 C288.23,178.96 272.76,206.54 259.31,230.53" fill="none" id="User-Order" style="stroke:#000000;stroke-width:1;"/><polygon fill="#000000" points="286.0943,196.7074,293.082,190.2558,287.9553,187.3807,286.0943,196.7074" style="stroke:#000000;stroke-width:1;"/><text fill="#000000" font-family="Verdana" font-size="13" lengthAdjust="spacing" textLength="41.7485" x="297.54" y="196.8469">places</text><text fill="#000000" font-family="Verdana" font-size="13" lengthAdjust="spacing" textLength="8.271" x="289.972" y="173.8176">1</text><text fill="#000000" font-family="Verdana" font-size="13" lengthAdjust="spacing" textLength="6.5" x="256.812" y="219.8941">*</text></g><!--link User to CartItem--><g class="link" data-entity-1="User" data-entity-2="CartItem" data-source-line="58" data-uid="lnk10" id="link_User_CartItem"><path codeLine="58" d="M410.72,153.96 C430.22,176.9 449.84,203.54 463.54,230.78 C488.4,280.18 501.56,342.34 508.24,386" fill="none" id="User-CartItem" style="stroke:#000000;stroke-width:1;"/><polygon fill="#000000" points="451.4772,196.9559,450.6821,187.4786,445.2634,189.7559,451.4772,196.9559" style="stroke:#000000;stroke-width:1;"/><text fill="#000000" font-family="Verdana" font-size="13" lengthAdjust="spacing" textLength="22.9785" x="458.54" y="196.8469">has</text><text fill="#000000" font-family="Verdana" font-size="13" lengthAdjust="spacing" textLength="8.271" x="409.1489" y="173.7676">1</text><text fill="#000000" font-family="Verdana" font-size="13" lengthAdjust="spacing" textLength="6.5" x="501.0803" y="375.085">*</text></g><!--link User to Address--><g class="link" data-entity-1="User" data-entity-2="Address" data-source-line="59" data-uid="lnk11" id="link_User_Address"><path codeLine="59" d="M345.76,154.02 C346.36,164.01 346.97,174.16 347.54,183.78 C352.91,273.77 356.69,296.16 359.54,386.27 C360.99,431.77 361.38,482.11 361.37,525.02" fill="none" id="User-Address" style="stroke:#000000;stroke-width:1;"/><polygon fill="#000000" points="362.7502,298.582,365.3063,289.4213,359.4336,289.6684,362.7502,298.582" style="stroke:#000000;stroke-width:1;"/><text fill="#000000" font-family="Verdana" font-size="13" lengthAdjust="spacing" textLength="59.8584" x="371.54" y="298.0869">manages</text><text fill="#000000" font-family="Verdana" font-size="13" lengthAdjust="spacing" textLength="8.271" x="337.7944" y="173.8335">1</text><text fill="#000000" font-family="Verdana" font-size="13" lengthAdjust="spacing" textLength="6.5" x="355.2349" y="514.2577">*</text></g><!--link Order to OrderItem--><g class="link" data-entity-1="Order" data-entity-2="OrderItem" data-source-line="60" data-uid="lnk12" id="link_Order_OrderItem"><path codeLine="60" d="M190.27,356.6 C186.26,366.28 182.8,376.36 180.54,386.27 C165.33,453.16 170.77,533.19 176.69,582.28" fill="none" id="Order-OrderItem" style="stroke:#000000;stroke-width:1;"/><polygon fill="#000000" points="185.2397,445.9174,188.7166,437.0652,182.8493,436.7121,185.2397,445.9174" style="stroke:#000000;stroke-width:1;"/><text fill="#000000" font-family="Verdana" font-size="13" lengthAdjust="spacing" textLength="55.0278" x="194.54" y="445.4269">contains</text><text fill="#000000" font-family="Verdana" font-size="13" lengthAdjust="spacing" textLength="8.271" x="178.0989" y="376.3936">1</text><text fill="#000000" font-family="Verdana" font-size="13" lengthAdjust="spacing" textLength="6.5" x="169.2797" y="571.4026">*</text></g><!--link OrderItem to Product--><g class="link" data-entity-1="OrderItem" data-entity-2="Product" data-source-line="61" data-uid="lnk13" id="link_OrderItem_Product"><path codeLine="61" d="M183.54,675.68 C183.54,712.61 183.54,765.42 183.54,809.07" fill="none" id="OrderItem-Product" style="stroke:#000000;stroke-width:1;"/><polygon fill="#000000" points="188.54,775.9864,191.4789,766.9413,185.6011,766.9413,188.54,775.9864" style="stroke:#000000;stroke-width:1;"/><text fill="#000000" font-family="Verdana" font-size="13" lengthAdjust="spacing" textLength="69.418" x="197.54" y="775.4869">references</text><text fill="#000000" font-family="Verdana" font-size="13" lengthAdjust="spacing" textLength="6.5" x="177.153" y="695.3844">*</text><text fill="#000000" font-family="Verdana" font-size="13" lengthAdjust="spacing" textLength="8.271" x="175.1957" y="798.4043">1</text></g><!--link CartItem to Product--><g class="link" data-entity-1="CartItem" data-entity-2="Product" data-source-line="62" data-uid="lnk14" id="link_CartItem_Product"><path codeLine="62" d="M518.78,495.86 C520.89,558.5 515.46,662.15 465.54,732.42 C418.88,798.13 335.26,839.01 271.16,862.18" fill="none" id="CartItem-Product" style="stroke:#000000;stroke-width:1;"/><polygon fill="#000000" points="520.7399,633.1488,528.2402,627.301,523.3705,624.0093,520.7399,633.1488" style="stroke:#000000;stroke-width:1;"/><text fill="#000000" font-family="Verdana" font-size="13" lengthAdjust="spacing" textLength="69.418" x="532.54" y="633.5069">references</text><text fill="#000000" font-family="Verdana" font-size="13" lengthAdjust="spacing" textLength="6.5" x="512.9614" y="515.5517">*</text><text fill="#000000" font-family="Verdana" font-size="13" lengthAdjust="spacing" textLength="8.271" x="278.7584" y="856.4551">1</text></g><!--link Order to Address--><g class="link" data-entity-1="Order" data-entity-2="Address" data-source-line="63" data-uid="lnk15" id="link_Order_Address"><path codeLine="63" d="M244.86,356.57 C263.98,414.96 289.82,493.76 290.54,495.45 C294.66,505.15 299.23,515.09 304,524.97" fill="none" id="Order-Address" style="stroke:#000000;stroke-width:1;"/><polygon fill="#000000" points="297.1967,445.6439,296.9726,436.136,291.4268,438.0836,297.1967,445.6439" style="stroke:#000000;stroke-width:1;"/><text fill="#000000" font-family="Verdana" font-size="13" lengthAdjust="spacing" textLength="50.832" x="304.54" y="445.4269">ships to</text><text fill="#000000" font-family="Verdana" font-size="13" lengthAdjust="spacing" textLength="6.5" x="240.7816" y="376.3603">*</text><text fill="#000000" font-family="Verdana" font-size="13" lengthAdjust="spacing" textLength="24.8066" x="275.422" y="514.5523">0..1</text></g><!--SRC=[dLFBJiCm4BptAuoF82h2COUYqdBeWO8e_G1ZRnjBVWHx0qB0lxDfciWbaGezEJCPxuxNupCim08hZT1kD996nCZM4GBx735seLNELXYqsn9oma8BRmY35TgaHF2617ozkdlYx8lnwVn-iUJqGmOG26gAEPlJnxEsG6nLgXxxtNfu35vL4e_O8AWWog1BrDwbNigW9SaM3WbeAxQm3WTcJ_3q4DJWO28Ah692e4TXfjPN3biBfxPR8DY1bg-LSAZneosV7BVRFnC1_xZz17TJfGBGsYzkn0kO10UGeDyWB0ylhYoyEy2UvcXcNgMaQBfaVUeweNISmqPKXepUUWgXSFyzqoxoFEFiyfBnSzx5BsV-tKKswGcQBEJrmv4m9EYcdxD230dQ0URC2aVvh3LDrTzjzcMaTqYljDFjw5fKQxFKSu0D172DiSx8SUc-_LvtDHvdgSrOw39Ijjda1m00]--></g></svg>