<svg xmlns="http://www.w3.org/2000/svg" xmlns:xlink="http://www.w3.org/1999/xlink" contentStyleType="text/css" data-diagram-type="SEQUENCE" height="1711px" preserveAspectRatio="none" style="width:1078px;height:1711px;background:#FFFFFF;" version="1.1" viewBox="0 0 1078 1711" width="1078px" zoomAndPan="magnify"><defs/><g><g><title>User</title><rect fill="#000000" fill-opacity="0.00000" height="1547.7734" width="8" x="24.9551" y="82.2969"/><line style="stroke:#000000;stroke-width:1;stroke-dasharray:5,5;" x1="28" x2="28" y1="82.2969" y2="1630.0703"/></g><g><title>Next.js App</title><rect fill="#000000" fill-opacity="0.00000" height="1547.7734" width="8" x="231.1222" y="82.2969"/><line style="stroke:#000000;stroke-width:1;stroke-dasharray:5,5;" x1="234.9747" x2="234.9747" y1="82.2969" y2="1630.0703"/></g><g><title>Auth .NextAuth.</title><rect fill="#000000" fill-opacity="0.00000" height="1547.7734" width="8" x="372.1993" y="82.2969"/><line style="stroke:#000000;stroke-width:1;stroke-dasharray:5,5;" x1="375.2696" x2="375.2696" y1="82.2969" y2="1630.0703"/></g><g><title>API Routes</title><rect fill="#000000" fill-opacity="0.00000" height="1547.7734" width="8" x="527.589" y="82.2969"/><line style="stroke:#000000;stroke-width:1;stroke-dasharray:5,5;" x1="531.0084" x2="531.0084" y1="82.2969" y2="1630.0703"/></g><g><title>Prisma . DB</title><rect fill="#000000" fill-opacity="0.00000" height="1547.7734" width="8" x="812.4586" y="82.2969"/><line style="stroke:#000000;stroke-width:1;stroke-dasharray:5,5;" x1="815.6583" x2="815.6583" y1="82.2969" y2="1630.0703"/></g><g><title>Google</title><rect fill="#000000" fill-opacity="0.00000" height="1547.7734" width="8" x="921.9435" y="82.2969"/><line style="stroke:#000000;stroke-width:1;stroke-dasharray:5,5;" x1="925.2589" x2="925.2589" y1="82.2969" y2="1630.0703"/></g><g><title>Iamport</title><rect fill="#000000" fill-opacity="0.00000" height="1547.7734" width="8" x="1018.1495" y="82.2969"/><line style="stroke:#000000;stroke-width:1;stroke-dasharray:5,5;" x1="1021.628" x2="1021.628" y1="82.2969" y2="1630.0703"/></g><g class="participant participant-head" data-participant="U"><text fill="#000000" font-family="Verdana" font-size="14" lengthAdjust="spacing" textLength="31.9102" x="10" y="78.9951">User</text><ellipse cx="28.9551" cy="14" fill="#FFFFFF" rx="8" ry="8" style="stroke:#000000;stroke-width:1;"/><path d="M28.9551,22 L28.9551,49 M15.9551,30 L41.9551,30 M28.9551,49 L15.9551,64 M28.9551,49 L41.9551,64" fill="none" style="stroke:#000000;stroke-width:1;"/></g><g class="participant participant-tail" data-participant="U"><text fill="#000000" font-family="Verdana" font-size="14" lengthAdjust="spacing" textLength="31.9102" x="10" y="1642.0654">User</text><ellipse cx="28.9551" cy="1654.3672" fill="#FFFFFF" rx="8" ry="8" style="stroke:#000000;stroke-width:1;"/><path d="M28.9551,1662.3672 L28.9551,1689.3672 M15.9551,1670.3672 L41.9551,1670.3672 M28.9551,1689.3672 L15.9551,1704.3672 M28.9551,1689.3672 L41.9551,1704.3672" fill="none" style="stroke:#000000;stroke-width:1;"/></g><g class="participant participant-head" data-participant="App"><rect fill="#FFFFFF" height="30.2969" rx="2.5" ry="2.5" style="stroke:#000000;stroke-width:1;" width="94.2949" x="187.9747" y="51"/><text fill="#000000" font-family="Verdana" font-size="14" lengthAdjust="spacing" textLength="80.2949" x="194.9747" y="70.9951">Next.js App</text></g><g class="participant participant-tail" data-participant="App"><rect fill="#FFFFFF" height="30.2969" rx="2.5" ry="2.5" style="stroke:#000000;stroke-width:1;" width="94.2949" x="187.9747" y="1629.0703"/><text fill="#000000" font-family="Verdana" font-size="14" lengthAdjust="spacing" textLength="80.2949" x="194.9747" y="1649.0654">Next.js App</text></g><g class="participant participant-head" data-participant="Auth"><rect fill="#FFFFFF" height="30.2969" rx="2.5" ry="2.5" style="stroke:#000000;stroke-width:1;" width="127.8594" x="312.2696" y="51"/><text fill="#000000" font-family="Verdana" font-size="14" lengthAdjust="spacing" textLength="113.8594" x="319.2696" y="70.9951">Auth (NextAuth)</text></g><g class="participant participant-tail" data-participant="Auth"><rect fill="#FFFFFF" height="30.2969" rx="2.5" ry="2.5" style="stroke:#000000;stroke-width:1;" width="127.8594" x="312.2696" y="1629.0703"/><text fill="#000000" font-family="Verdana" font-size="14" lengthAdjust="spacing" textLength="113.8594" x="319.2696" y="1649.0654">Auth (NextAuth)</text></g><g class="participant participant-head" data-participant="API"><rect fill="#FFFFFF" height="30.2969" rx="2.5" ry="2.5" style="stroke:#000000;stroke-width:1;" width="89.1611" x="487.0084" y="51"/><text fill="#000000" font-family="Verdana" font-size="14" lengthAdjust="spacing" textLength="75.1611" x="494.0084" y="70.9951">API Routes</text></g><g class="participant participant-tail" data-participant="API"><rect fill="#FFFFFF" height="30.2969" rx="2.5" ry="2.5" style="stroke:#000000;stroke-width:1;" width="89.1611" x="487.0084" y="1629.0703"/><text fill="#000000" font-family="Verdana" font-size="14" lengthAdjust="spacing" textLength="75.1611" x="494.0084" y="1649.0654">API Routes</text></g><g class="participant participant-head" data-participant="DB"><rect fill="#FFFFFF" height="30.2969" rx="2.5" ry="2.5" style="stroke:#000000;stroke-width:1;" width="95.6006" x="768.6583" y="51"/><text fill="#000000" font-family="Verdana" font-size="14" lengthAdjust="spacing" textLength="81.6006" x="775.6583" y="70.9951">Prisma / DB</text></g><g class="participant participant-tail" data-participant="DB"><rect fill="#FFFFFF" height="30.2969" rx="2.5" ry="2.5" style="stroke:#000000;stroke-width:1;" width="95.6006" x="768.6583" y="1629.0703"/><text fill="#000000" font-family="Verdana" font-size="14" lengthAdjust="spacing" textLength="81.6006" x="775.6583" y="1649.0654">Prisma / DB</text></g><g class="participant participant-head" data-participant="Google"><rect fill="#FFFFFF" height="30.2969" rx="2.5" ry="2.5" style="stroke:#000000;stroke-width:1;" width="63.3691" x="894.2589" y="51"/><text fill="#000000" font-family="Verdana" font-size="14" lengthAdjust="spacing" textLength="49.3691" x="901.2589" y="70.9951">Google</text></g><g class="participant participant-tail" data-participant="Google"><rect fill="#FFFFFF" height="30.2969" rx="2.5" ry="2.5" style="stroke:#000000;stroke-width:1;" width="63.3691" x="894.2589" y="1629.0703"/><text fill="#000000" font-family="Verdana" font-size="14" lengthAdjust="spacing" textLength="49.3691" x="901.2589" y="1649.0654">Google</text></g><g class="participant participant-head" data-participant="Iamport"><rect fill="#FFFFFF" height="30.2969" rx="2.5" ry="2.5" style="stroke:#000000;stroke-width:1;" width="69.043" x="987.628" y="51"/><text fill="#000000" font-family="Verdana" font-size="14" lengthAdjust="spacing" textLength="55.043" x="994.628" y="70.9951">Iamport</text></g><g class="participant participant-tail" data-participant="Iamport"><rect fill="#FFFFFF" height="30.2969" rx="2.5" ry="2.5" style="stroke:#000000;stroke-width:1;" width="69.043" x="987.628" y="1629.0703"/><text fill="#000000" font-family="Verdana" font-size="14" lengthAdjust="spacing" textLength="55.043" x="994.628" y="1649.0654">Iamport</text></g><rect fill="#FFFFFF" height="3" style="stroke:#FFFFFF;stroke-width:1;" width="1066.671" x="5" y="112.8633"/><line style="stroke:#000000;stroke-width:0.5;" x1="5" x2="1071.671" y1="112.8633" y2="112.8633"/><line style="stroke:#000000;stroke-width:0.5;" x1="5" x2="1071.671" y1="115.8633" y2="115.8633"/><rect fill="#FFFFFF" height="23.1328" style="stroke:#000000;stroke-width:1;" width="99.3377" x="488.6667" y="102.2969"/><text fill="#000000" font-family="Verdana" font-size="13" font-weight="bold" lengthAdjust="spacing" textLength="80.8118" x="494.6667" y="118.3638">&#48169;&#47928; &#48143; &#47196;&#44536;&#51064;</text><g class="message" data-participant-1="U" data-participant-2="App"><polygon fill="#000000" points="223.1222,152.5625,233.1222,156.5625,223.1222,160.5625,227.1222,156.5625" style="stroke:#000000;stroke-width:1;"/><line style="stroke:#000000;stroke-width:1;" x1="28.9551" x2="229.1222" y1="156.5625" y2="156.5625"/><text fill="#000000" font-family="Verdana" font-size="13" lengthAdjust="spacing" textLength="182.1671" x="35.9551" y="151.4966">&#51217;&#49549;(gogiziktong.vercel.app)</text></g><g class="message" data-participant-1="App" data-participant-2="API"><polygon fill="#000000" points="519.589,181.6953,529.589,185.6953,519.589,189.6953,523.589,185.6953" style="stroke:#000000;stroke-width:1;"/><line style="stroke:#000000;stroke-width:1;" x1="235.1222" x2="525.589" y1="185.6953" y2="185.6953"/><text fill="#000000" font-family="Verdana" font-size="13" lengthAdjust="spacing" textLength="179.9495" x="242.1222" y="180.6294">&#52572;&#49888; &#49345;&#54408; &#51312;&#54924; (/api/products)</text></g><g class="message" data-participant-1="API" data-participant-2="DB"><polygon fill="#000000" points="804.4586,210.8281,814.4586,214.8281,804.4586,218.8281,808.4586,214.8281" style="stroke:#000000;stroke-width:1;"/><line style="stroke:#000000;stroke-width:1;" x1="531.589" x2="810.4586" y1="214.8281" y2="214.8281"/><text fill="#000000" font-family="Verdana" font-size="13" lengthAdjust="spacing" textLength="113.8008" x="538.589" y="209.7622">Product.findMany</text></g><g class="message" data-participant-1="DB" data-participant-2="API"><polygon fill="#000000" points="542.589,239.9609,532.589,243.9609,542.589,247.9609,538.589,243.9609" style="stroke:#000000;stroke-width:1;"/><line style="stroke:#000000;stroke-width:1;stroke-dasharray:2,2;" x1="536.589" x2="815.4586" y1="243.9609" y2="243.9609"/><text fill="#000000" font-family="Verdana" font-size="13" lengthAdjust="spacing" textLength="51.9724" x="548.589" y="238.895">&#49345;&#54408; &#47785;&#47197;</text></g><g class="message" data-participant-1="API" data-participant-2="App"><polygon fill="#000000" points="246.1222,269.0938,236.1222,273.0938,246.1222,277.0938,242.1222,273.0938" style="stroke:#000000;stroke-width:1;"/><line style="stroke:#000000;stroke-width:1;stroke-dasharray:2,2;" x1="240.1222" x2="530.589" y1="273.0938" y2="273.0938"/><text fill="#000000" font-family="Verdana" font-size="13" lengthAdjust="spacing" textLength="32.043" x="252.1222" y="268.0278">JSON</text></g><g class="message" data-participant-1="App" data-participant-2="U"><polygon fill="#000000" points="39.9551,298.2266,29.9551,302.2266,39.9551,306.2266,35.9551,302.2266" style="stroke:#000000;stroke-width:1;"/><line style="stroke:#000000;stroke-width:1;stroke-dasharray:2,2;" x1="33.9551" x2="234.1222" y1="302.2266" y2="302.2266"/><text fill="#000000" font-family="Verdana" font-size="13" lengthAdjust="spacing" textLength="68.0647" x="45.9551" y="297.1606">&#54856; &#54868;&#47732; &#54364;&#49884;</text></g><g class="message" data-participant-1="U" data-participant-2="App"><polygon fill="#000000" points="223.1222,327.3594,233.1222,331.3594,223.1222,335.3594,227.1222,331.3594" style="stroke:#000000;stroke-width:1;"/><line style="stroke:#000000;stroke-width:1;" x1="28.9551" x2="229.1222" y1="331.3594" y2="331.3594"/><text fill="#000000" font-family="Verdana" font-size="13" lengthAdjust="spacing" textLength="115.9037" x="35.9551" y="326.2935">"&#44396;&#44544;&#47196; &#47196;&#44536;&#51064;" &#49440;&#53469;</text></g><g class="message" data-participant-1="App" data-participant-2="Auth"><polygon fill="#000000" points="364.1993,356.4922,374.1993,360.4922,364.1993,364.4922,368.1993,360.4922" style="stroke:#000000;stroke-width:1;"/><line style="stroke:#000000;stroke-width:1;" x1="235.1222" x2="370.1993" y1="360.4922" y2="360.4922"/><text fill="#000000" font-family="Verdana" font-size="13" lengthAdjust="spacing" textLength="105.0728" x="242.1222" y="355.4263">signIn("google")</text></g><g class="message" data-participant-1="Auth" data-participant-2="Google"><polygon fill="#000000" points="913.9435,385.625,923.9435,389.625,913.9435,393.625,917.9435,389.625" style="stroke:#000000;stroke-width:1;"/><line style="stroke:#000000;stroke-width:1;" x1="376.1993" x2="919.9435" y1="389.625" y2="389.625"/><text fill="#000000" font-family="Verdana" font-size="13" lengthAdjust="spacing" textLength="68.7535" x="383.1993" y="384.5591">OAuth &#51064;&#51613;</text></g><g class="message" data-participant-1="Google" data-participant-2="Auth"><polygon fill="#000000" points="387.1993,414.7578,377.1993,418.7578,387.1993,422.7578,383.1993,418.7578" style="stroke:#000000;stroke-width:1;"/><line style="stroke:#000000;stroke-width:1;stroke-dasharray:2,2;" x1="381.1993" x2="924.9435" y1="418.7578" y2="418.7578"/><text fill="#000000" font-family="Verdana" font-size="13" lengthAdjust="spacing" textLength="64.1799" x="393.1993" y="413.6919">&#53664;&#53360;/&#54532;&#47196;&#54596;</text></g><g class="message" data-participant-1="Auth" data-participant-2="DB"><polygon fill="#000000" points="804.4586,443.8906,814.4586,447.8906,804.4586,451.8906,808.4586,447.8906" style="stroke:#000000;stroke-width:1;"/><line style="stroke:#000000;stroke-width:1;" x1="376.1993" x2="810.4586" y1="447.8906" y2="447.8906"/><text fill="#000000" font-family="Verdana" font-size="13" lengthAdjust="spacing" textLength="145.8415" x="383.1993" y="442.8247">User upsert &amp; &#49464;&#49496; &#51200;&#51109;</text></g><g class="message" data-participant-1="Auth" data-participant-2="App"><polygon fill="#000000" points="246.1222,473.0234,236.1222,477.0234,246.1222,481.0234,242.1222,477.0234" style="stroke:#000000;stroke-width:1;"/><line style="stroke:#000000;stroke-width:1;stroke-dasharray:2,2;" x1="240.1222" x2="375.1993" y1="477.0234" y2="477.0234"/><text fill="#000000" font-family="Verdana" font-size="13" lengthAdjust="spacing" textLength="51.9724" x="252.1222" y="471.9575">&#49464;&#49496; &#53216;&#53412;</text></g><g class="message" data-participant-1="App" data-participant-2="U"><polygon fill="#000000" points="39.9551,502.1563,29.9551,506.1563,39.9551,510.1563,35.9551,506.1563" style="stroke:#000000;stroke-width:1;"/><line style="stroke:#000000;stroke-width:1;stroke-dasharray:2,2;" x1="33.9551" x2="234.1222" y1="506.1563" y2="506.1563"/><text fill="#000000" font-family="Verdana" font-size="13" lengthAdjust="spacing" textLength="91.9847" x="45.9551" y="501.0903">&#47196;&#44536;&#51064; &#50756;&#47308; &#49345;&#53468;</text></g><rect fill="#FFFFFF" height="3" style="stroke:#FFFFFF;stroke-width:1;" width="1066.671" x="5" y="534.7227"/><line style="stroke:#000000;stroke-width:0.5;" x1="5" x2="1071.671" y1="534.7227" y2="534.7227"/><line style="stroke:#000000;stroke-width:0.5;" x1="5" x2="1071.671" y1="537.7227" y2="537.7227"/><rect fill="#FFFFFF" height="23.1328" style="stroke:#000000;stroke-width:1;" width="163.5864" x="456.5423" y="524.1563"/><text fill="#000000" font-family="Verdana" font-size="13" font-weight="bold" lengthAdjust="spacing" textLength="145.0605" x="462.5423" y="540.2231">&#49345;&#54408; &#51452;&#47928; (&#51109;&#48148;&#44396;&#45768; &#44208;&#51228;)</text><g class="message" data-participant-1="U" data-participant-2="App"><polygon fill="#000000" points="223.1222,574.4219,233.1222,578.4219,223.1222,582.4219,227.1222,578.4219" style="stroke:#000000;stroke-width:1;"/><line style="stroke:#000000;stroke-width:1;" x1="28.9551" x2="229.1222" y1="578.4219" y2="578.4219"/><text fill="#000000" font-family="Verdana" font-size="13" lengthAdjust="spacing" textLength="120.037" x="35.9551" y="573.356">&#49345;&#54408; &#49345;&#49464; &#54168;&#51060;&#51648; &#50676;&#44592;</text></g><g class="message" data-participant-1="App" data-participant-2="API"><polygon fill="#000000" points="519.589,603.5547,529.589,607.5547,519.589,611.5547,523.589,607.5547" style="stroke:#000000;stroke-width:1;"/><line style="stroke:#000000;stroke-width:1;" x1="235.1222" x2="525.589" y1="607.5547" y2="607.5547"/><text fill="#000000" font-family="Verdana" font-size="13" lengthAdjust="spacing" textLength="178.2844" x="242.1222" y="602.4888">&#49345;&#54408; &#51312;&#54924; (/api/products/[id])</text></g><g class="message" data-participant-1="API" data-participant-2="DB"><polygon fill="#000000" points="804.4586,632.6875,814.4586,636.6875,804.4586,640.6875,808.4586,636.6875" style="stroke:#000000;stroke-width:1;"/><line style="stroke:#000000;stroke-width:1;" x1="531.589" x2="810.4586" y1="636.6875" y2="636.6875"/><text fill="#000000" font-family="Verdana" font-size="13" lengthAdjust="spacing" textLength="124.541" x="538.589" y="631.6216">Product.findUnique</text></g><g class="message" data-participant-1="DB" data-participant-2="API"><polygon fill="#000000" points="542.589,661.8203,532.589,665.8203,542.589,669.8203,538.589,665.8203" style="stroke:#000000;stroke-width:1;"/><line style="stroke:#000000;stroke-width:1;stroke-dasharray:2,2;" x1="536.589" x2="815.4586" y1="665.8203" y2="665.8203"/><text fill="#000000" font-family="Verdana" font-size="13" lengthAdjust="spacing" textLength="63.9324" x="548.589" y="660.7544">&#49345;&#54408; &#45936;&#51060;&#53552;</text></g><g class="message" data-participant-1="API" data-participant-2="App"><polygon fill="#000000" points="246.1222,690.9531,236.1222,694.9531,246.1222,698.9531,242.1222,694.9531" style="stroke:#000000;stroke-width:1;"/><line style="stroke:#000000;stroke-width:1;stroke-dasharray:2,2;" x1="240.1222" x2="530.589" y1="694.9531" y2="694.9531"/><text fill="#000000" font-family="Verdana" font-size="13" lengthAdjust="spacing" textLength="32.043" x="252.1222" y="689.8872">JSON</text></g><g class="message" data-participant-1="App" data-participant-2="U"><polygon fill="#000000" points="39.9551,720.0859,29.9551,724.0859,39.9551,728.0859,35.9551,724.0859" style="stroke:#000000;stroke-width:1;"/><line style="stroke:#000000;stroke-width:1;stroke-dasharray:2,2;" x1="33.9551" x2="234.1222" y1="724.0859" y2="724.0859"/><text fill="#000000" font-family="Verdana" font-size="13" lengthAdjust="spacing" textLength="80.0247" x="45.9551" y="719.02">&#49345;&#49464; &#54868;&#47732; &#54364;&#49884;</text></g><g class="message" data-participant-1="U" data-participant-2="App"><polygon fill="#000000" points="223.1222,749.2188,233.1222,753.2188,223.1222,757.2188,227.1222,753.2188" style="stroke:#000000;stroke-width:1;"/><line style="stroke:#000000;stroke-width:1;" x1="28.9551" x2="229.1222" y1="753.2188" y2="753.2188"/><text fill="#000000" font-family="Verdana" font-size="13" lengthAdjust="spacing" textLength="75.8924" x="35.9551" y="748.1528">&#51109;&#48148;&#44396;&#45768; &#45812;&#44592;</text></g><g class="message" data-participant-1="App" data-participant-2="API"><polygon fill="#000000" points="519.589,778.3516,529.589,782.3516,519.589,786.3516,523.589,782.3516" style="stroke:#000000;stroke-width:1;"/><line style="stroke:#000000;stroke-width:1;" x1="235.1222" x2="525.589" y1="782.3516" y2="782.3516"/><text fill="#000000" font-family="Verdana" font-size="13" lengthAdjust="spacing" textLength="92.5425" x="242.1222" y="777.2856">POST /api/cart</text></g><g class="message" data-participant-1="API" data-participant-2="DB"><polygon fill="#000000" points="804.4586,807.4844,814.4586,811.4844,804.4586,815.4844,808.4586,811.4844" style="stroke:#000000;stroke-width:1;"/><line style="stroke:#000000;stroke-width:1;" x1="531.589" x2="810.4586" y1="811.4844" y2="811.4844"/><text fill="#000000" font-family="Verdana" font-size="13" lengthAdjust="spacing" textLength="102.9146" x="538.589" y="806.4185">CartItem upsert</text></g><g class="message" data-participant-1="DB" data-participant-2="API"><polygon fill="#000000" points="542.589,836.6172,532.589,840.6172,542.589,844.6172,538.589,840.6172" style="stroke:#000000;stroke-width:1;"/><line style="stroke:#000000;stroke-width:1;stroke-dasharray:2,2;" x1="536.589" x2="815.4586" y1="840.6172" y2="840.6172"/><text fill="#000000" font-family="Verdana" font-size="13" lengthAdjust="spacing" textLength="57.0781" x="548.589" y="835.5513">CartItem</text></g><g class="message" data-participant-1="API" data-participant-2="App"><polygon fill="#000000" points="246.1222,865.75,236.1222,869.75,246.1222,873.75,242.1222,869.75" style="stroke:#000000;stroke-width:1;"/><line style="stroke:#000000;stroke-width:1;stroke-dasharray:2,2;" x1="240.1222" x2="530.589" y1="869.75" y2="869.75"/><text fill="#000000" font-family="Verdana" font-size="13" lengthAdjust="spacing" textLength="23.92" x="252.1222" y="864.6841">&#51025;&#45813;</text></g><g class="message" data-participant-1="U" data-participant-2="App"><polygon fill="#000000" points="223.1222,894.8828,233.1222,898.8828,223.1222,902.8828,227.1222,898.8828" style="stroke:#000000;stroke-width:1;"/><line style="stroke:#000000;stroke-width:1;" x1="28.9551" x2="229.1222" y1="898.8828" y2="898.8828"/><text fill="#000000" font-family="Verdana" font-size="13" lengthAdjust="spacing" textLength="143.957" x="35.9551" y="893.8169">&#51109;&#48148;&#44396;&#45768; &#44208;&#51228; &#54168;&#51060;&#51648; &#51060;&#46041;</text></g><g class="message" data-participant-1="App" data-participant-2="API"><polygon fill="#000000" points="519.589,924.0156,529.589,928.0156,519.589,932.0156,523.589,928.0156" style="stroke:#000000;stroke-width:1;"/><line style="stroke:#000000;stroke-width:1;" x1="235.1222" x2="525.589" y1="928.0156" y2="928.0156"/><text fill="#000000" font-family="Verdana" font-size="13" lengthAdjust="spacing" textLength="217.8516" x="242.1222" y="922.9497">GET /api/cart, GET /api/addresses</text></g><g class="message" data-participant-1="API" data-participant-2="DB"><polygon fill="#000000" points="804.4586,953.1484,814.4586,957.1484,804.4586,961.1484,808.4586,957.1484" style="stroke:#000000;stroke-width:1;"/><line style="stroke:#000000;stroke-width:1;" x1="531.589" x2="810.4586" y1="957.1484" y2="957.1484"/><text fill="#000000" font-family="Verdana" font-size="13" lengthAdjust="spacing" textLength="249.8628" x="538.589" y="952.0825">CartItem.findMany / Address.findMany</text></g><g class="message" data-participant-1="DB" data-participant-2="API"><polygon fill="#000000" points="542.589,982.2813,532.589,986.2813,542.589,990.2813,538.589,986.2813" style="stroke:#000000;stroke-width:1;"/><line style="stroke:#000000;stroke-width:1;stroke-dasharray:2,2;" x1="536.589" x2="815.4586" y1="986.2813" y2="986.2813"/><text fill="#000000" font-family="Verdana" font-size="13" lengthAdjust="spacing" textLength="35.88" x="548.589" y="981.2153">&#45936;&#51060;&#53552;</text></g><g class="message" data-participant-1="API" data-participant-2="App"><polygon fill="#000000" points="246.1222,1011.4141,236.1222,1015.4141,246.1222,1019.4141,242.1222,1015.4141" style="stroke:#000000;stroke-width:1;"/><line style="stroke:#000000;stroke-width:1;stroke-dasharray:2,2;" x1="240.1222" x2="530.589" y1="1015.4141" y2="1015.4141"/><text fill="#000000" font-family="Verdana" font-size="13" lengthAdjust="spacing" textLength="32.043" x="252.1222" y="1010.3481">JSON</text></g><g class="message" data-participant-1="App" data-participant-2="U"><polygon fill="#000000" points="39.9551,1040.5469,29.9551,1044.5469,39.9551,1048.5469,35.9551,1044.5469" style="stroke:#000000;stroke-width:1;"/><line style="stroke:#000000;stroke-width:1;stroke-dasharray:2,2;" x1="33.9551" x2="234.1222" y1="1044.5469" y2="1044.5469"/><text fill="#000000" font-family="Verdana" font-size="13" lengthAdjust="spacing" textLength="68.0647" x="45.9551" y="1039.481">&#44208;&#51228; &#54268; &#54364;&#49884;</text></g><g class="message" data-participant-1="U" data-participant-2="App"><polygon fill="#000000" points="223.1222,1069.6797,233.1222,1073.6797,223.1222,1077.6797,227.1222,1073.6797" style="stroke:#000000;stroke-width:1;"/><line style="stroke:#000000;stroke-width:1;" x1="28.9551" x2="229.1222" y1="1073.6797" y2="1073.6797"/><text fill="#000000" font-family="Verdana" font-size="13" lengthAdjust="spacing" textLength="63.9313" x="35.9551" y="1068.6138">"&#44208;&#51228;" &#53364;&#47533;</text></g><g class="message" data-participant-1="App" data-participant-2="Iamport"><polygon fill="#000000" points="1010.1495,1098.8125,1020.1495,1102.8125,1010.1495,1106.8125,1014.1495,1102.8125" style="stroke:#000000;stroke-width:1;"/><line style="stroke:#000000;stroke-width:1;" x1="235.1222" x2="1016.1495" y1="1102.8125" y2="1102.8125"/><text fill="#000000" font-family="Verdana" font-size="13" lengthAdjust="spacing" textLength="80.1138" x="242.1222" y="1097.7466">request_pay</text></g><g class="message" data-participant-1="Iamport" data-participant-2="App"><polygon fill="#000000" points="246.1222,1127.9453,236.1222,1131.9453,246.1222,1135.9453,242.1222,1131.9453" style="stroke:#000000;stroke-width:1;"/><line style="stroke:#000000;stroke-width:1;stroke-dasharray:2,2;" x1="240.1222" x2="1021.1495" y1="1131.9453" y2="1131.9453"/><text fill="#000000" font-family="Verdana" font-size="13" lengthAdjust="spacing" textLength="80.0247" x="252.1222" y="1126.8794">&#44208;&#51228; &#49457;&#44277; &#53084;&#48177;</text></g><g class="message" data-participant-1="App" data-participant-2="API"><polygon fill="#000000" points="519.589,1157.0781,529.589,1161.0781,519.589,1165.0781,523.589,1161.0781" style="stroke:#000000;stroke-width:1;"/><line style="stroke:#000000;stroke-width:1;" x1="235.1222" x2="525.589" y1="1161.0781" y2="1161.0781"/><text fill="#000000" font-family="Verdana" font-size="13" lengthAdjust="spacing" textLength="272.4668" x="242.1222" y="1156.0122">POST /api/orders/cart (shippingAddressId)</text></g><g class="message" data-participant-1="API" data-participant-2="DB"><polygon fill="#000000" points="804.4586,1186.2109,814.4586,1190.2109,804.4586,1194.2109,808.4586,1190.2109" style="stroke:#000000;stroke-width:1;"/><line style="stroke:#000000;stroke-width:1;" x1="531.589" x2="810.4586" y1="1190.2109" y2="1190.2109"/><text fill="#000000" font-family="Verdana" font-size="13" lengthAdjust="spacing" textLength="135.0619" x="538.589" y="1185.145">&#51452;&#47928; &#49373;&#49457; + &#52852;&#53944; &#48708;&#50864;&#44592;</text></g><g class="message" data-participant-1="DB" data-participant-2="API"><polygon fill="#000000" points="542.589,1215.3438,532.589,1219.3438,542.589,1223.3438,538.589,1219.3438" style="stroke:#000000;stroke-width:1;"/><line style="stroke:#000000;stroke-width:1;stroke-dasharray:2,2;" x1="536.589" x2="815.4586" y1="1219.3438" y2="1219.3438"/><text fill="#000000" font-family="Verdana" font-size="13" lengthAdjust="spacing" textLength="92.6948" x="548.589" y="1214.2778">Order + Items</text></g><g class="message" data-participant-1="API" data-participant-2="App"><polygon fill="#000000" points="246.1222,1244.4766,236.1222,1248.4766,246.1222,1252.4766,242.1222,1248.4766" style="stroke:#000000;stroke-width:1;"/><line style="stroke:#000000;stroke-width:1;stroke-dasharray:2,2;" x1="240.1222" x2="530.589" y1="1248.4766" y2="1248.4766"/><text fill="#000000" font-family="Verdana" font-size="13" lengthAdjust="spacing" textLength="23.92" x="252.1222" y="1243.4106">&#51025;&#45813;</text></g><g class="message" data-participant-1="App" data-participant-2="API"><polygon fill="#000000" points="519.589,1273.6094,529.589,1277.6094,519.589,1281.6094,523.589,1277.6094" style="stroke:#000000;stroke-width:1;"/><line style="stroke:#000000;stroke-width:1;" x1="235.1222" x2="525.589" y1="1277.6094" y2="1277.6094"/><text fill="#000000" font-family="Verdana" font-size="13" lengthAdjust="spacing" textLength="220.2213" x="242.1222" y="1272.5435">PATCH /api/orders/{id} &#49345;&#53468;=PAID</text></g><g class="message" data-participant-1="API" data-participant-2="DB"><polygon fill="#000000" points="804.4586,1302.7422,814.4586,1306.7422,804.4586,1310.7422,808.4586,1306.7422" style="stroke:#000000;stroke-width:1;"/><line style="stroke:#000000;stroke-width:1;" x1="531.589" x2="810.4586" y1="1306.7422" y2="1306.7422"/><text fill="#000000" font-family="Verdana" font-size="13" lengthAdjust="spacing" textLength="87.1089" x="538.589" y="1301.6763">Order.update</text></g><g class="message" data-participant-1="DB" data-participant-2="API"><polygon fill="#000000" points="542.589,1331.875,532.589,1335.875,542.589,1339.875,538.589,1335.875" style="stroke:#000000;stroke-width:1;"/><line style="stroke:#000000;stroke-width:1;stroke-dasharray:2,2;" x1="536.589" x2="815.4586" y1="1335.875" y2="1335.875"/><text fill="#000000" font-family="Verdana" font-size="13" lengthAdjust="spacing" textLength="37.1719" x="548.589" y="1330.8091">Order</text></g><g class="message" data-participant-1="API" data-participant-2="App"><polygon fill="#000000" points="246.1222,1361.0078,236.1222,1365.0078,246.1222,1369.0078,242.1222,1365.0078" style="stroke:#000000;stroke-width:1;"/><line style="stroke:#000000;stroke-width:1;stroke-dasharray:2,2;" x1="240.1222" x2="530.589" y1="1365.0078" y2="1365.0078"/><text fill="#000000" font-family="Verdana" font-size="13" lengthAdjust="spacing" textLength="23.92" x="252.1222" y="1359.9419">&#51025;&#45813;</text></g><g class="message" data-participant-1="App" data-participant-2="U"><polygon fill="#000000" points="39.9551,1390.1406,29.9551,1394.1406,39.9551,1398.1406,35.9551,1394.1406" style="stroke:#000000;stroke-width:1;"/><line style="stroke:#000000;stroke-width:1;stroke-dasharray:2,2;" x1="33.9551" x2="234.1222" y1="1394.1406" y2="1394.1406"/><text fill="#000000" font-family="Verdana" font-size="13" lengthAdjust="spacing" textLength="145.2278" x="45.9551" y="1389.0747">&#49457;&#44277; &#50504;&#45236; + /orders &#51060;&#46041;</text></g><rect fill="#FFFFFF" height="3" style="stroke:#FFFFFF;stroke-width:1;" width="1066.671" x="5" y="1422.707"/><line style="stroke:#000000;stroke-width:0.5;" x1="5" x2="1071.671" y1="1422.707" y2="1422.707"/><line style="stroke:#000000;stroke-width:0.5;" x1="5" x2="1071.671" y1="1425.707" y2="1425.707"/><rect fill="#FFFFFF" height="23.1328" style="stroke:#000000;stroke-width:1;" width="99.3377" x="488.6667" y="1412.1406"/><text fill="#000000" font-family="Verdana" font-size="13" font-weight="bold" lengthAdjust="spacing" textLength="80.8118" x="494.6667" y="1428.2075">&#51452;&#47928; &#45236;&#50669; &#51312;&#54924;</text><g class="message" data-participant-1="U" data-participant-2="App"><polygon fill="#000000" points="223.1222,1462.4063,233.1222,1466.4063,223.1222,1470.4063,227.1222,1466.4063" style="stroke:#000000;stroke-width:1;"/><line style="stroke:#000000;stroke-width:1;" x1="28.9551" x2="229.1222" y1="1466.4063" y2="1466.4063"/><text fill="#000000" font-family="Verdana" font-size="13" lengthAdjust="spacing" textLength="74.0982" x="35.9551" y="1461.3403">/orders &#51217;&#49549;</text></g><g class="message" data-participant-1="App" data-participant-2="API"><polygon fill="#000000" points="519.589,1491.5391,529.589,1495.5391,519.589,1499.5391,523.589,1495.5391" style="stroke:#000000;stroke-width:1;"/><line style="stroke:#000000;stroke-width:1;" x1="235.1222" x2="525.589" y1="1495.5391" y2="1495.5391"/><text fill="#000000" font-family="Verdana" font-size="13" lengthAdjust="spacing" textLength="100.6167" x="242.1222" y="1490.4731">GET /api/orders</text></g><g class="message" data-participant-1="API" data-participant-2="DB"><polygon fill="#000000" points="804.4586,1520.6719,814.4586,1524.6719,804.4586,1528.6719,808.4586,1524.6719" style="stroke:#000000;stroke-width:1;"/><line style="stroke:#000000;stroke-width:1;" x1="531.589" x2="810.4586" y1="1524.6719" y2="1524.6719"/><text fill="#000000" font-family="Verdana" font-size="13" lengthAdjust="spacing" textLength="260.8696" x="538.589" y="1519.606">Order.findMany(include items+address)</text></g><g class="message" data-participant-1="DB" data-participant-2="API"><polygon fill="#000000" points="542.589,1549.8047,532.589,1553.8047,542.589,1557.8047,538.589,1553.8047" style="stroke:#000000;stroke-width:1;"/><line style="stroke:#000000;stroke-width:1;stroke-dasharray:2,2;" x1="536.589" x2="815.4586" y1="1553.8047" y2="1553.8047"/><text fill="#000000" font-family="Verdana" font-size="13" lengthAdjust="spacing" textLength="51.9724" x="548.589" y="1548.7388">&#51452;&#47928; &#47785;&#47197;</text></g><g class="message" data-participant-1="API" data-participant-2="App"><polygon fill="#000000" points="246.1222,1578.9375,236.1222,1582.9375,246.1222,1586.9375,242.1222,1582.9375" style="stroke:#000000;stroke-width:1;"/><line style="stroke:#000000;stroke-width:1;stroke-dasharray:2,2;" x1="240.1222" x2="530.589" y1="1582.9375" y2="1582.9375"/><text fill="#000000" font-family="Verdana" font-size="13" lengthAdjust="spacing" textLength="32.043" x="252.1222" y="1577.8716">JSON</text></g><g class="message" data-participant-1="App" data-participant-2="U"><polygon fill="#000000" points="39.9551,1608.0703,29.9551,1612.0703,39.9551,1616.0703,35.9551,1612.0703" style="stroke:#000000;stroke-width:1;"/><line style="stroke:#000000;stroke-width:1;stroke-dasharray:2,2;" x1="33.9551" x2="234.1222" y1="1612.0703" y2="1612.0703"/><text fill="#000000" font-family="Verdana" font-size="13" lengthAdjust="spacing" textLength="80.0247" x="45.9551" y="1607.0044">&#51452;&#47928; &#45236;&#50669; &#54364;&#49884;</text></g><!--SRC=[ZLHjQzDG5FwUNt7i1scPQxyNAhIhp0YknQsVH2Gqr-vgcyGa5QS8srf7iPjZih4N6kcOJYORPDfY1nF_JtFp7pnvQvkj7VlG9hddxJdFSywzeo-I2W6bB5294ugwh4918oe86XGuHL1rMgIA8EaGcIDlzVXB3TAA4d7C-0mxfAlw8aGTD-SjvZdXsnMlF0zFvAfEDCyXpuVjUPLg5G4IaCsu3jaCnwLIO9adrcaF7vjW7RRwVthCw44gnHLW-hu39GcilSNMDg8bkKJVqLUwB9NYRuXQ9EMue2Wn3drSrpoFhjqMQxQ1rLRiBmrWXwPzi0xHXA3GXABAOhMeQnY0G34Wcqb2tZkClw2I-5YGbhXi1gO7oRmiriyJwz3meW98Z-PpSrvXF2aamTvlu6_REkc0lOKGMjm8_aY_UzhlBMDtmmuZmEfjksOCq2ETIT1eIUAbQAGaowKoYI1KXtaqpxe7ISYv1nZFZWtEE_H0kU7sMjjUCHFsTXths3lrGRZJgYj-LS5_7UvYzHxxk8VKBhEltts_0T- -xL_RNlqsskLG7xPVjuxMNOPgBLV6WFAZIqVDA6Qrp6rit6eseF_BPErMx8ggVa1j1Uk1_NcF6HtsOndORgVVCyEgtY1duYaLdqtKj23HrrKoLjKD4mlQTVDcOGDuaxGDzMarhq7Fv-ONm0LSn5qOXJc3txnEAhuc8Oo1BOoD6LjMipknkiVoA9D6nzhS3y6PVJ22vjxmKn15bMWQqSOX76m7xcxQSno_CBVaD02wUJbsMLnh1EoLZdLy5g3dXOeYgteIL8A2QlfpHLZY_CDX9Jypgv_tVtU1_MrPvla4EMHL9AhcyW1HRP4g2fLAVdUy61eeVwPPpS34C0NiecD_mXlheiuEJ4VmKGvoJbvqSeZJnkeNmfDUc7aO0lIUYX_ylKhbqtns58YRErvLH44drujEBkQFii_AJiDQxI12ls8m9kuIUvsYdUsU1ViMsjf1a7idZvyjp-Kwy61cebGgbgiY0UfmDENFNYoyfJwIMzozOT3UHFq7]--></g></svg>